<svg xmlns="http://www.w3.org/2000/svg" viewBox="0 0 548.69 431.69" id="message-not-found">
    <g>
        <g>
            <ellipse cx="312.73" cy="396.95" fill="none" stroke="#ffcd52" stroke-miterlimit="10" rx="19.68"
                     ry="34.1"></ellipse>
            <path fill="#ffcd52"
                  d="M295.84 412c-2.8-6.46-.68-10.42-.68-15 0-9.62 3.22-20.53 9-27.37a52.83 52.83 0 0 1 2.45 15.13c-.04 9.58-5.02 20.35-10.77 27.24Z"></path>
            <ellipse cx="282.44" cy="384.78" fill="#fff" rx="19.68" ry="34.1"></ellipse>
            <path fill="#ffcd52"
                  d="M330.76 398c0 3.81 1.55 6.85-.56 12-9-7.21-15.83-19.32-15.83-31.78a55.47 55.47 0 0 1 1.9-13c9.04 7.16 14.49 20.34 14.49 32.78Z"></path>
            <ellipse cx="337.56" cy="376.27" fill="#fff" rx="19.68" ry="34.1"></ellipse>
            <path fill="none" stroke="#ffcd52" stroke-linecap="round" stroke-linejoin="round"
                  d="M312.73 431.05v-51.13M312.73 399.95l7.96-9.12M312.73 410.82l11.48-13.13M312.73 422.04l11.86-13.56M312.73 399.97l-9.67-11.05M312.73 410.85l-11.86-13.57M312.73 422.06l-11.86-13.56"></path>
            <ellipse cx="337.56" cy="376.27" fill="none" stroke="#008ef8" stroke-miterlimit="10" rx="19.68"
                     ry="34.1"></ellipse>
            <path fill="none" stroke="#008ef8" stroke-linecap="round" stroke-linejoin="round"
                  d="M337.56 359.24v71.95M337.56 379.26l9.65-11.03M337.56 390.14l11.86-13.56M337.56 401.36l11.86-13.57M337.56 379.29l-9.67-11.06M337.56 390.17 325.7 376.6M337.56 401.38l-11.86-13.56"></path>
            <ellipse cx="282.44" cy="384.78" fill="none" stroke="#ff5061" stroke-linecap="round" stroke-linejoin="round"
                     rx="19.68" ry="34.1"></ellipse>
            <path fill="none" stroke="#ff5061" stroke-linecap="round" stroke-linejoin="round"
                  d="M282.44 367.74v63.45M282.44 387.77l9.65-11.03M282.44 398.65l11.87-13.56M282.44 409.86l11.87-13.56M282.44 387.79l-9.66-11.05M282.44 398.67l-11.86-13.56M282.44 409.88l-11.86-13.56"></path>
            <rect width="97.06" height="98.1" x="334.55" y="43" fill="#c1e3f7" rx="13"
                  transform="rotate(45 383.082 92.048)"></rect>
            <rect width="114.32" height="114.32" x="325.92" y="34.89" fill="none" stroke="#008ef8"
                  stroke-linecap="round" stroke-linejoin="round" rx="13" transform="rotate(45 383.082 92.048)"></rect>
            <path fill="#f46534"
                  d="M95 197.45s208.47 7.55 273.78-4.95a22.56 22.56 0 0 0 17.56-16.18c4.73-17.23 11-51.76 4.27-100.9L421 95.89l24.7-51.53 4.94 20.47 21.86 26.83s-6.24 30.35-9.82 75.14c-7.06 88.35 11.44 186 52.87 264.39H373.67s29.74-111.9 7.28-184.61a28.91 28.91 0 0 0-28-20.44l-114.41 1.43c-11.35.49-21.85.82-33.88 6.58a66.4 66.4 0 0 0-15.53 10.36c-7.08 6.38-8.52 10.59-15.53 20.23-6 8.31-12.33 16.95-21.18 23.53-5.4 4-14.83 9.56-29.65 11.77l-6.58-10.75-9.13 4h-19c22-14.6 36.61-20 46.11-22.12a32.21 32.21 0 0 0 14.59-7.05c1.7-1.49 10.11-8.86 8.94-18.83a16.59 16.59 0 0 0-4.7-9.88c-4.94-4.74-12.05-4.61-15.06-4.71-7.84-.25-19.33-3.12-34.82-15.06l4-6-12-12.2"></path>
            <path fill="#439916" d="M120.06 176.06s32.38-13.07 24.09-39.35c0 0-15.93 1.98-24.09 39.35Z"></path>
            <path fill="#336d11"
                  d="m120.06 176.06 6.56-9.57c2.18-3.2 4.39-6.36 6.49-9.6s4.24-6.45 6.23-9.75c1-1.65 2-3.32 2.81-5a17.71 17.71 0 0 0 2-5.39 16.64 16.64 0 0 1-1.55 5.6c-.78 1.78-1.67 3.51-2.59 5.21-1.87 3.41-4 6.68-6.07 9.92s-4.38 6.39-6.7 9.49-4.68 6.13-7.18 9.09Z"></path>
            <path fill="#439916"
                  d="M86.75 271.27s-14 20.65-47.95 12.18c0 0 30.07-20.75 47.95-12.18ZM62.76 168.59s4.06 34.68 31.59 33.62c0 0 2.29-15.88-31.59-33.62Z"></path>
            <path fill="#336d11"
                  d="M96.23 259.35s-20.66 14-49-6.49c-.04 0 35.58-8.1 49 6.49ZM99.69 303.69s-5.9 32.51-36.19 38.59c0 0 15.5-32.88 36.19-38.59ZM107.82 305.36s-6.91 12.57 20.49 39.18c0 0 5.1-17.63-20.49-39.18Z"></path>
            <path fill="#439916"
                  d="M151.38 353.88s10.33-33.35-15.27-43.53c0 0-8.53 13.65 15.27 43.53ZM102.39 325.92s15.9 29-10.79 44.43c0 0 3.3-39.15 10.79-44.43Z"></path>
            <path fill="#336d11" d="M58.14 232.29s8.47-22.06 34.94-22.41c0 0-9.18 21.71-34.94 22.41Z"></path>
            <path fill="#439916" d="M88.08 240.23s33.76-9.7 44.7 3.18c0 0-24.19 17.64-44.7-3.18Z"></path>
            <path fill="#336d11"
                  d="M92 276.06s20.12-22.42 40.76-18c.02 0-12.33 22.94-40.76 18ZM96.23 188.86s20.12-22.41 40.76-18c.01 0-12.35 22.94-40.76 18ZM148.59 296s-6.16 26.3 25.8 37c0 0-7.89-26.72-25.8-37Z"></path>
            <circle cx="166.37" cy="341.52" r="8.53" fill="#ff5061"></circle>
            <path fill="#d12060"
                  d="M160.83 341.52a8.53 8.53 0 0 1 7-8.39 8.29 8.29 0 0 0-1.5-.14 8.53 8.53 0 1 0 0 17.06 8.29 8.29 0 0 0 1.5-.14 8.53 8.53 0 0 1-7-8.39Z"></path>
            <circle cx="75.61" cy="300.04" r="8.53" fill="#ff5061"></circle>
            <path fill="#d12060"
                  d="M70.07 300a8.54 8.54 0 0 1 7-8.4 9.3 9.3 0 0 0-1.5-.14 8.54 8.54 0 1 0 0 17.07 9.3 9.3 0 0 0 1.5-.14 8.54 8.54 0 0 1-7-8.39Z"></path>
            <circle cx="77.11" cy="240.23" r="8.53" fill="#ff5061"></circle>
            <path fill="#d12060"
                  d="M71.57 240.23a8.53 8.53 0 0 1 7-8.39 8.29 8.29 0 0 0-1.5-.14 8.53 8.53 0 1 0 0 17.06 8.29 8.29 0 0 0 1.5-.14 8.53 8.53 0 0 1-7-8.39Z"></path>
            <circle cx="93.08" cy="174.82" r="8.53" fill="#ff5061"></circle>
            <path fill="#d12060"
                  d="M87.55 174.82a8.52 8.52 0 0 1 7-8.39 8.29 8.29 0 0 0-1.5-.14 8.53 8.53 0 1 0 0 17.06 8.29 8.29 0 0 0 1.5-.14 8.52 8.52 0 0 1-7-8.39Z"></path>
            <circle cx="63.5" cy="203.17" r="8.53" fill="#ff5061"></circle>
            <path fill="#d12060"
                  d="M58 203.17a8.53 8.53 0 0 1 7-8.39 9.3 9.3 0 0 0-1.5-.14 8.54 8.54 0 1 0 0 17.07 9.3 9.3 0 0 0 1.5-.14 8.54 8.54 0 0 1-7-8.4Z"></path>
            <circle cx="117.88" cy="353.45" r="8.53" fill="#ff5061"></circle>
            <path fill="#d12060"
                  d="M112.35 353.45a8.54 8.54 0 0 1 7-8.4 9.09 9.09 0 0 0-1.5-.14 8.54 8.54 0 0 0 0 17.07 9.09 9.09 0 0 0 1.5-.14 8.54 8.54 0 0 1-7-8.39Z"></path>
            <circle cx="142.55" cy="248.37" r="8.53" fill="#ff5061"></circle>
            <path fill="#d12060"
                  d="M137 248.37a8.54 8.54 0 0 1 7-8.4 9.09 9.09 0 0 0-1.5-.14 8.54 8.54 0 0 0 0 17.07 9.09 9.09 0 0 0 1.5-.14 8.53 8.53 0 0 1-7-8.39Z"></path>
            <path fill="#ffcd52"
                  d="M126.42 209.65q11.47 1.57 22.94 3.27l11.46 1.69 11.45 1.76a.45.45 0 0 1 .32.21l2.7 4.25-.51-.2 7.42-1.93h.08l31.66-2.25 15.83-1 15.84-.92-15.8 1.43-15.81 1.25-31.64 2.46h.08l-7.44 1.87a.48.48 0 0 1-.51-.2l-2.68-4.28.31.21-11.44-1.83-11.43-1.89q-11.42-1.89-22.83-3.9ZM124.2 285.49c2.88-1.76 5.76-3.5 8.68-5.19s5.81-3.4 8.75-5.05a.45.45 0 0 1 .58.13l2.21 3.05-.73-.05c1.84-2 3.7-3.95 5.58-5.89l5.62-5.84c3.79-3.86 7.58-7.72 11.48-11.48-3.56 4.09-7.21 8.07-10.86 12.06l-5.51 5.92c-1.84 2-3.71 3.94-5.59 5.88a.47.47 0 0 1-.67 0v-.06l-2.17-3.07.59.13c-2.95 1.63-5.92 3.21-8.9 4.79s-6.05 3.18-9.06 4.67ZM112.4 214a42.82 42.82 0 0 1 6.16 3.11 41.33 41.33 0 0 1 5.64 4A42.87 42.87 0 0 1 118 218a42.15 42.15 0 0 1-5.6-4ZM142.55 221.09c1.15.4 2.28.83 3.42 1.26s2.27.84 3.4 1.29l6.76 2.67H156l5.29.43a.51.51 0 0 1 .29.13l3.45 3.51-.36-.15h6c2 0 4 0 6 .07 4 .08 8 .18 12 .38-4 .21-8 .3-12 .38-2 .06-4 .06-6 .08h-6a.51.51 0 0 1-.36-.15l-3.4-3.55.3.14-5.28-.51h-.12l-6.65-2.95c-1.11-.49-2.2-1-3.3-1.52ZM164.67 248.37c2.79-2.48 5.76-4.71 8.77-6.89a109.13 109.13 0 0 1 9.35-6.07 109.27 109.27 0 0 1-8.79 6.89c-3 2.14-6.08 4.23-9.33 6.07ZM104.88 289.72a124.86 124.86 0 0 1 18.12-13 107.06 107.06 0 0 1-8.77 6.89 109.24 109.24 0 0 1-9.35 6.11ZM135.73 291.5a42.39 42.39 0 0 1 6-3.45 41 41 0 0 1 6.41-2.56 47.09 47.09 0 0 1-12.38 6ZM204.2 224.35c6.33-1.08 12.67-2.08 19-3.06s12.69-1.88 19-2.83h.09c3.22.13 6.43.29 9.65.47h-.21c5.85-2.4 11.68-4.85 17.56-7.18s11.75-4.7 17.65-7c-5.77 2.6-11.57 5.12-17.38 7.62s-11.64 4.94-17.46 7.41a.48.48 0 0 1-.2 0c-3.21-.14-6.43-.29-9.64-.47h.09c-6.36.87-12.71 1.79-19.08 2.59s-12.69 1.73-19.07 2.45ZM188.67 207.41c2.12 0 4.23.11 6.33.24s4.21.3 6.31.5 4.19.43 6.28.73l3.14.45c1 .18 2.08.33 3.12.55-1.06 0-2.12 0-3.17-.06l-3.16-.17c-2.11-.12-4.21-.31-6.31-.51s-4.19-.44-6.28-.73-4.18-.59-6.26-1ZM107.05 202.23c2.93.23 5.85.57 8.77.92s5.83.76 8.74 1.18 5.81.88 8.7 1.4l4.34.79c1.44.3 2.88.56 4.32.89-1.47-.1-2.93-.27-4.39-.41l-4.38-.5c-2.92-.35-5.83-.76-8.74-1.18s-5.81-.89-8.7-1.41-5.79-1.04-8.66-1.68ZM232.91 208.64c3.86-1 7.76-1.75 11.68-2.4s7.86-1.17 11.85-1.42c-3.86 1-7.77 1.75-11.69 2.41s-7.86 1.17-11.84 1.41Z"></path>
            <path fill="#fda01f"
                  d="M340.72 202.63c3.86-1 7.77-1.75 11.69-2.41s7.86-1.17 11.84-1.42c-3.85 1-7.76 1.76-11.68 2.41s-7.86 1.17-11.85 1.42Z"></path>
            <path fill="#336d11"
                  d="M136.11 310.35c1.87 3.35 3.54 6.8 5.16 10.28s3.07 7 4.48 10.59 2.63 7.21 3.64 10.92a55.17 55.17 0 0 1 2.12 11.31c-.19-.95-.38-1.88-.55-2.82s-.46-1.86-.69-2.78-.51-1.84-.77-2.76-.54-1.82-.84-2.73q-1.74-5.44-3.84-10.78c-1.33-3.59-2.8-7.11-4.25-10.65q-1.09-2.65-2.23-5.29Z"></path>
            <path fill="#439916" d="M196.89 314.63s-34.81 2.67-39.06-24.55c0 0 15.17-5.3 39.06 24.55Z"></path>
            <path fill="#336d11"
                  d="m157.83 290.08 4.67 3.36c1.54 1.12 3.09 2.24 4.66 3.33 3.12 2.21 6.24 4.43 9.44 6.51s6.37 4.2 9.66 6.14c.81.49 1.63 1 2.47 1.43s1.66.95 2.52 1.36 1.7.88 2.56 1.29 1.75.76 2.62 1.16a56 56 0 0 1-10.55-4.57c-3.39-1.81-6.63-3.88-9.84-6s-6.3-4.37-9.33-6.72-6.03-4.72-8.88-7.29ZM102.39 325.92a103.81 103.81 0 0 1-.08 11.7 111.46 111.46 0 0 1-1.31 11.64 63.91 63.91 0 0 1-3 11.34 35.41 35.41 0 0 1-2.56 5.3 17.26 17.26 0 0 1-3.79 4.45 18.81 18.81 0 0 0 3.37-4.7 35.11 35.11 0 0 0 2.26-5.32 71.91 71.91 0 0 0 2.72-11.25c.72-3.8 1.15-7.66 1.55-11.52.2-1.94.35-3.87.48-5.81s.26-3.88.36-5.83ZM38.8 283.45c4-1.17 7.94-2.24 11.93-3.3s8-2 12-3.08l12-2.9 6-1.42c2-.47 4-.92 6-1.48-3.87 1.47-7.87 2.52-11.83 3.64s-8 2.1-12 3.13-8 1.95-12 2.85-8.04 1.79-12.1 2.56ZM88.08 240.23l5.58.74q2.78.39 5.57.73c3.72.46 7.44.92 11.16 1.24s7.46.67 11.19.81c1.87.1 3.73.09 5.6.06l2.81-.11c.92-.11 1.85-.2 2.79-.29a47.93 47.93 0 0 1-11.21 1.11c-3.77 0-7.53-.25-11.27-.58s-7.47-.86-11.18-1.49-7.4-1.31-11.04-2.22ZM62.76 168.59l7.5 8.85c2.5 2.95 5 5.92 7.54 8.8s5.1 5.79 7.76 8.58c1.33 1.4 2.69 2.76 4.12 4.05a18.12 18.12 0 0 0 4.67 3.34 16.76 16.76 0 0 1-5-3c-1.51-1.22-2.94-2.54-4.35-3.88-2.79-2.69-5.39-5.57-8-8.47s-5-5.91-7.38-9-4.62-6.08-6.86-9.27Z"></path>
            <path fill="#439916" d="M128.72 189.69s34.21 7 41.81-19.5c0 0-14.37-7.14-41.81 19.5Z"></path>
            <path fill="#336d11"
                  d="m128.72 189.69 10.75-4.36c3.58-1.45 7.17-2.87 10.71-4.41s7.1-3 10.58-4.69c1.74-.82 3.47-1.69 5.13-2.65a17.81 17.81 0 0 0 4.64-3.39 16.83 16.83 0 0 1-4.38 3.81c-1.64 1.06-3.33 2-5 2.92-3.44 1.81-7 3.38-10.54 4.92s-7.18 2.9-10.82 4.21-7.35 2.56-11.07 3.64Z"></path>
            <path fill="#439916"
                  d="M96.23 188.86c3.39-1.54 6.8-3 10.22-4.48L116.7 180l10.24-4.38c1.7-.74 3.4-1.49 5.07-2.28s3.35-1.6 5-2.49a72 72 0 0 1-9.73 5.47c-3.35 1.64-6.75 3.13-10.17 4.6s-6.88 2.85-10.36 4.16-6.98 2.62-10.52 3.78Z"></path>
            <path fill="#336d11" d="M111.76 167.29S91.31 145.18 97.61 125c0 0 21.7 14.45 14.15 42.29Z"></path>
            <path fill="#439916"
                  d="M111.76 167.29c-1.22-3.52-2.36-7.06-3.51-10.59l-3.4-10.61-3.41-10.6c-.59-1.77-1.17-3.53-1.81-5.27s-1.28-3.48-2-5.19a70.48 70.48 0 0 1 4.55 10.2c1.32 3.48 2.5 7 3.64 10.55s2.2 7.11 3.19 10.7 1.93 7.18 2.75 10.81ZM58.14 232.29c2.83-2 5.72-3.89 8.62-5.79s5.81-3.75 8.73-5.61l8.8-5.49 4.42-2.73c1.47-.9 2.94-1.8 4.37-2.79a97 97 0 0 1-8.37 6.17c-2.85 2-5.77 3.83-8.69 5.68s-5.87 3.67-8.86 5.42-5.97 3.5-9.02 5.14ZM47.19 252.86c4.1.55 8.17 1.18 12.25 1.8l12.24 1.85c4.07.64 8.16 1.21 12.24 1.76 2 .26 4.09.52 6.14.7a60.46 60.46 0 0 0 6.17.38 70.25 70.25 0 0 1-12.39-.35c-4.12-.39-8.22-1-12.31-1.53s-8.16-1.31-12.21-2.09-8.11-1.56-12.13-2.52ZM92 276.06l10.37-4.16 10.34-4.2q5.16-2.11 10.24-4.4l2.52-1.17 2.49-1.25c.84-.41 1.63-.89 2.45-1.33s1.55-1 2.35-1.49a47.93 47.93 0 0 1-9.46 5.94c-3.33 1.68-6.75 3.19-10.19 4.63s-6.93 2.75-10.45 4S95.6 275 92 276.06ZM63.5 342.28l4.62-4.75 4.65-4.72c3.09-3.15 6.22-6.26 9.28-9.44s6.16-6.32 9.16-9.55c1.5-1.61 3-3.23 4.42-4.91a46.49 46.49 0 0 0 4.06-5.22c-2.11 3.9-5 7.28-7.9 10.65s-6 6.53-9 9.72-6.25 6.26-9.46 9.3-6.48 6.04-9.83 8.92ZM107.82 305.36c2.21 3 4.25 6.06 6.24 9.18s3.87 6.31 5.66 9.56 3.47 6.54 4.94 9.95a57.16 57.16 0 0 1 3.65 10.49c-.33-.87-.65-1.74-1-2.61l-1.07-2.55c-.74-1.68-1.49-3.37-2.32-5q-2.44-5-5.13-9.79c-1.76-3.24-3.6-6.44-5.44-9.64ZM148.59 296c.83 1.71 1.67 3.42 2.56 5.1s1.75 3.38 2.67 5c1.83 3.32 3.69 6.63 5.79 9.79a83.55 83.55 0 0 0 6.62 9.21 54.09 54.09 0 0 0 3.83 4.18c.69.64 1.34 1.34 2.08 1.93s1.5 1.16 2.25 1.76a35.86 35.86 0 0 1-8.74-7.37 73.94 73.94 0 0 1-6.89-9.17 109.89 109.89 0 0 1-5.62-10 100.36 100.36 0 0 1-4.55-10.43Z"></path>
            <path fill="#0850ec"
                  d="M290.61 181.64s33.12-33.19 52.62-25.95c0 0-26.56 19.85-49.94 27.44 0 0 44.2-18.44 69.35-3.53 0 0-35.12 9.27-68 7.41 0 0 72.18 1.24 82 10.06 0 0-63.79 6.09-80.82-7.41 0 0 19.73 15 46.34 15.27a6.58 6.58 0 0 1 4.62 1.81c1.61 1.61 1.95 3.82-6.77 4.69a53.07 53.07 0 0 1-14.29-.57c-14.28-2.44-45.91-10.13-35.11-29.22Z"></path>
            <path fill="#ffcd52"
                  d="M272.11 219.92c4.43-.41 8.86-.7 13.29-1s8.87-.47 13.31-.71 8.87-.36 13.31-.48l6.66-.16c2.22 0 4.44-.06 6.66-.05-2.21.21-4.42.36-6.64.54l-6.65.44c-4.43.28-8.87.47-13.3.71s-8.87.36-13.31.48-8.88.24-13.33.23ZM407.23 250.57q3.18 11.15 6.26 22.32l3.08 11.17 3 11.18-.24-.29 4.53 2.23a.46.46 0 0 1 .26.49l-1.12 7.58v-.09l.86 31.73.34 15.86.23 15.87-.73-15.85-.63-15.86-1.07-31.72a.19.19 0 0 1 0-.08l1.15-7.58.25.49-4.51-2.25a.46.46 0 0 1-.24-.29l-2.94-11.21-2.88-11.22q-2.83-11.22-5.6-22.48ZM460.73 115.42q-2.42 11.34-5 22.64l-2.53 11.3-2.6 11.3a.45.45 0 0 1-.23.29l-4.37 2.39.24-.5 1.38 7.54v.09l-.09 31.73-.14 15.87-.24 15.87-.26-15.87-.15-15.87-.11-31.73v.09l-1.35-7.56a.47.47 0 0 1 .24-.5l4.46-2.36-.23.3 2.67-11.28 2.73-11.26q2.73-11.24 5.58-22.48ZM444.81 65.7c-.59 1-1.2 2.1-1.82 3.15S441.78 71 441.15 72l-3.77 6.22.05-.12-1.32 5.14a.44.44 0 0 1-.18.26l-4 2.81.21-.33-1.14 5.89c-.35 2-.68 3.94-1.08 5.9-.75 3.93-1.52 7.86-2.4 11.77.48-4 1.05-7.94 1.65-11.9.28-2 .62-4 .94-5.92l1-5.93a.47.47 0 0 1 .21-.32l4.07-2.76-.19.27 1.39-5.12a.37.37 0 0 1 .05-.11l4-6c.67-1 1.37-2 2.05-3s1.42-2.07 2.12-3.05ZM389.71 400.65c1.89-6.13 3.92-12.22 6-18.31l3.11-9.1c1-3 2.08-6.08 3.16-9.1v-.08l4.89-8.33v.38c-.69-1.61-1.33-3.24-2-4.86l-2-4.88q-2-4.87-3.89-9.79c1.5 3.18 2.95 6.37 4.39 9.57l2.15 4.81c.71 1.61 1.44 3.2 2.13 4.82a.42.42 0 0 1 0 .38l-4.8 8.38v-.08c-1 3-2.11 6.06-3.18 9.08l-3.22 9.07c-2.22 6.03-4.45 12.06-6.74 18.04ZM342.29 221.09l20.14-7.59a.28.28 0 0 1 .25 0l16.09 12-.09-.06 11.2 4.78a.45.45 0 0 1 .22.21l6.73 12.84a.41.41 0 0 1 .05.18l3.2 36.57 1.51 18.3 1.39 18.3-1.9-18.26-1.79-18.26-3.39-36.56.06.18-6.67-12.87.23.21-11.18-4.84-.09-.05-15.9-12.17h.26ZM367.7 206.73c4.5 1.09 9 2.19 13.49 3.35s9 2.28 13.45 3.49l-.56.4.93-13.51 1.05-13.5c.33-4.51.75-9 1.13-13.5s.82-9 1.28-13.48q-.3 6.77-.7 13.52c-.28 4.51-.51 9-.84 13.52l-.93 13.51-1 13.47a.44.44 0 0 1-.47.41h-.08c-4.47-1.21-8.92-2.51-13.38-3.77s-8.94-2.57-13.37-3.91ZM403 95.82c.56 2.94 1 5.9 1.44 8.86s.81 5.92 1.18 8.89.68 5.93.94 8.91l.39 4.47c.1 1.49.22 3 .29 4.48-.29-1.47-.52-3-.78-4.42l-.66-4.44c-.45-2.95-.81-5.92-1.18-8.89s-.68-5.94-.94-8.91-.54-5.96-.68-8.95ZM415.84 111.51q-.55 8.67-1.2 17.35l-1.33 17.34a.44.44 0 0 1-.07.19l-3.75 5.82v-.48l6.77 10.81a.52.52 0 0 1 .07.32l-1.73 13.68c-.58 4.56-1.13 9.12-1.75 13.68L411 203.89l-1.93 13.65 1.44-13.71 1.54-13.71c.5-4.57 1.08-9.12 1.62-13.69l1.64-13.69.07.32-6.7-10.85a.46.46 0 0 1 0-.49l3.78-5.8-.07.2 1.64-17.31q.88-8.65 1.81-17.3ZM450.52 83.87c-.66 4-1.34 8-2.08 12s-1.46 8-2.25 12v-.23l2.43 7.16 2.36 7.18a.46.46 0 0 1 0 .23c-.82 4.31-1.64 8.62-2.52 12.91-.44 2.15-.86 4.3-1.32 6.44l-1.4 6.43 1-6.5c.33-2.17.71-4.33 1.07-6.49.7-4.33 1.48-8.64 2.25-13v.23l-2.42-7.16-2.35-7.18a.65.65 0 0 1 0-.24c.8-4 1.66-7.94 2.53-11.91s1.77-7.92 2.7-11.87ZM436.19 109.54c-.74 1.92-1.52 3.82-2.29 5.73s-1.57 3.8-2.36 5.7v-.13c.09 3.78.1 7.57.12 11.36s0 7.58 0 11.36-.05 7.58-.14 11.37-.17 7.57-.32 11.36q-.24-5.68-.33-11.36c-.09-3.79-.12-7.58-.13-11.37s0-7.57 0-11.36 0-7.58.12-11.36v-.12c.87-1.87 1.71-3.74 2.6-5.6s1.81-3.74 2.73-5.58ZM422.76 164.52q4.42 7.56 8.75 15.18a.43.43 0 0 1 0 .19c-.51 4.74-1 9.47-1.57 14.2l-1.64 14.2-1.75 14.19c-.57 4.73-1.21 9.45-1.83 14.17v-.09l1.43 7.81 1.37 7.83-1.72-7.76-1.68-7.77v-.08c.51-4.74 1-9.48 1.56-14.21l1.63-14.2 1.78-14.18c.57-4.73 1.19-9.46 1.82-14.18v.19q-4.13-7.71-8.15-15.49ZM433.71 221.09c2 6.62 4 13.27 5.9 19.93s3.78 13.34 5.67 20a.47.47 0 0 1-.1.46c-1.83 2-3.7 4-5.56 5.95l.12-.39c.89 6.38 1.83 12.75 2.65 19.14s1.68 12.77 2.43 19.17q-1.65-9.53-3.12-19.07c-1-6.36-1.94-12.74-2.9-19.1a.51.51 0 0 1 .12-.4c1.85-2 3.68-4 5.55-6l-.12.46c-1.81-6.69-3.68-13.36-5.43-20.06s-3.55-13.37-5.21-20.09ZM453.24 270.33c2 8.74 3.93 17.49 5.83 26.25l2.81 13.15 2.77 13.15a.48.48 0 0 1-.06.37l-5.49 8.9v-.43l4.27 10.45 4.22 10.46 4.19 10.48 4.11 10.51-4.49-10.35-4.4-10.38-4.4-10.39-4.34-10.42a.48.48 0 0 1 0-.42l5.45-8.93-.07.36-2.64-13.18-2.66-13.17c-1.75-8.8-3.48-17.59-5.1-26.41ZM433.71 314.7l2.94 6.57q1.47 3.28 2.89 6.59a.43.43 0 0 1 0 .11c.05 4.43.14 8.86.14 13.29l.06 13.3-.06 13.29c0 4.43-.07 8.86-.13 13.29a.36.36 0 0 1 0 .11c-1 2.34-1.91 4.68-2.89 7l-3 7 2.6-7.12c.87-2.38 1.77-4.75 2.66-7.11v.11c-.06-4.43-.13-8.86-.13-13.29l-.06-13.29.06-13.3c0-4.43.09-8.86.14-13.29v.11q-1.35-3.33-2.66-6.68ZM453.24 350.05l3 6.88c1 2.29 2 4.6 3 6.9s2 4.6 2.93 6.91l2.87 6.94a1.16 1.16 0 0 1 0 .18v10.35l-.24-.41c4.46 2.62 8.95 5.2 13.38 7.88s8.87 5.32 13.26 8.06c-4.56-2.43-9.1-4.93-13.61-7.46s-9-5.1-13.5-7.65a.47.47 0 0 1-.24-.41v-10.35.18l-2.8-7c-1-2.32-1.84-4.66-2.75-7s-1.84-4.66-2.72-7ZM304.85 152.36c0 26.71-18.65 48.36-41.65 48.36S211 172.86 211 146.16s20.05-51 43.05-51 50.8 30.5 50.8 57.2Z"></path>
            <path fill="#ff5061"
                  d="M211.25 140.61s-6.2 3.55-13.87-1.48c0 0 .17 16.59 10.67 12.26 0 0-5.2 7.33-1.94 13.41 0 0 3.61-10.07 6.13-8.74Z"></path>
            <circle cx="244.67" cy="146.16" r="9.44" fill="#ff5061"></circle>
            <path fill="none" stroke="#f44552" stroke-linecap="round" stroke-linejoin="round"
                  d="M226.25 129.08S237 137.2 250 123.26"></path>
            <path fill="#f44552"
                  d="M248.82 124.37a27.11 27.11 0 0 1 5.34-6.26 19.69 19.69 0 0 1 3.38-2.4 9.39 9.39 0 0 1 3.93-1.31 15.92 15.92 0 0 0-3.52 2 35.47 35.47 0 0 0-3.14 2.5c-1 .87-2 1.79-3 2.71Z"></path>
            <path fill="#f44552"
                  d="M248.82 124.37a27.16 27.16 0 0 1 6.54-5 19.55 19.55 0 0 1 3.82-1.64 9.57 9.57 0 0 1 4.11-.44 16.34 16.34 0 0 0-3.85 1.17 38.79 38.79 0 0 0-3.6 1.78c-1.18.64-2.34 1.33-3.5 2Z"></path>
            <path fill="#f44552"
                  d="M249.29 124a27.4 27.4 0 0 1 7.52-3.33 20 20 0 0 1 4.09-.71 9.51 9.51 0 0 1 4.1.53 15.85 15.85 0 0 0-4 .25 35.64 35.64 0 0 0-3.91.9c-1.3.34-2.59.74-3.88 1.15Z"></path>
            <path fill="#0850ec"
                  d="M240.18 98.15s-7.74-6-13.24-4.9c0 0-.39-5.48 11.56 1.35 0 0 .47-16.77 7.88-18.65a48.38 48.38 0 0 0-4.94 18.71s4.64-14.66 18.06-15.3c0 0-11.18 11.89-16.28 15.83 0 0 16-12.59 22.51-7.3A48 48 0 0 1 244 95.83s20.94-3.17 24.76-.64-22.49 5.87-28.58 2.96Z"></path>
            <path fill="#0850ec"
                  d="M239.16 95.82a13.46 13.46 0 0 1-2.8-7.2 16.27 16.27 0 0 1-.06-2 13.86 13.86 0 0 1 .26-2 12 12 0 0 1 1.36-3.65 29.6 29.6 0 0 0-.59 3.76 19.16 19.16 0 0 0 0 3.71 24.19 24.19 0 0 0 .67 3.76 29.36 29.36 0 0 0 1.16 3.62ZM241 96.49a33.5 33.5 0 0 1 2-8 28.09 28.09 0 0 1 4-7.31 22.07 22.07 0 0 1 2.92-3 16.42 16.42 0 0 1 3.58-2.24 15.06 15.06 0 0 1 4-1.16 16 16 0 0 1 4.15 0 17.26 17.26 0 0 0-7.85 1.83 18.92 18.92 0 0 0-6 5.21 33.43 33.43 0 0 0-4.11 7c-.57 1.24-1.06 2.52-1.51 3.81s-.79 2.52-1.18 3.86ZM242.38 95.82a48.77 48.77 0 0 1 5.7-4.94 48.28 48.28 0 0 1 6.38-4.08 29.67 29.67 0 0 1 7.1-2.74 17.91 17.91 0 0 1 3.8-.42 10.18 10.18 0 0 1 3.71.74 11.28 11.28 0 0 0-3.7-.25 17.13 17.13 0 0 0-3.62.68 37.38 37.38 0 0 0-6.82 2.88c-2.2 1.14-4.31 2.46-6.41 3.82-1.05.68-2.07 1.38-3.09 2.11s-2.04 1.46-3.05 2.2ZM287.85 96.41a10.61 10.61 0 0 0-4.85-2.93 25.5 25.5 0 0 0-5.62-1 62.84 62.84 0 0 0-11.47.35c-3.8.44-7.6 1-11.36 1.79s-7.5 1.62-11.19 2.64a.5.5 0 0 1-.29-1 49.12 49.12 0 0 1 11.71-2.06 72 72 0 0 1 11.84.2c2 .27 3.92.46 5.85.85 1 .19 1.95.33 2.91.55l2.87.68c1 .21 1.91.48 2.85.78l2.83.85c1.87.61 3.7 1.32 5.55 2-1.89-.57-3.75-1.19-5.63-1.73l-2.85-.7c-.94-.26-1.89-.49-2.86-.67l-2.87-.6c-1-.2-1.93-.32-2.9-.48-1.93-.35-3.88-.49-5.82-.7a80.17 80.17 0 0 0-11.7-.07 49.24 49.24 0 0 0-11.43 2.08l-.31-.95q5.61-1.5 11.29-2.57a110.55 110.55 0 0 1 11.46-1.65 61.36 61.36 0 0 1 11.56-.07 26.22 26.22 0 0 1 5.67 1.24 10.4 10.4 0 0 1 4.76 3.17ZM273 154.66a14.48 14.48 0 0 1 4.75 1.75 10.63 10.63 0 0 1 2 1.61 5.53 5.53 0 0 1 1.38 2.22.75.75 0 0 1-.27.74 1.38 1.38 0 0 1-.7.21 5.74 5.74 0 0 1-1.32-.13 21 21 0 0 1-2.47-.69c-1.61-.56-3.18-1.21-4.73-1.91l.29-.53a30.55 30.55 0 0 1 4.25 3 19.31 19.31 0 0 1 1.82 1.87 10.72 10.72 0 0 1 .81 1.07 4 4 0 0 1 .35.63 3.69 3.69 0 0 1 .2.69 1.88 1.88 0 0 1 0 .82 1.09 1.09 0 0 1-.64.73 2.56 2.56 0 0 1-1.52 0 12.92 12.92 0 0 1-2.52-.87 43.26 43.26 0 0 1-4.61-2.46.45.45 0 0 1-.15-.62.46.46 0 0 1 .57-.17l7 3.26a12.14 12.14 0 0 1 3.23 2.34 16.92 16.92 0 0 1 1.33 1.48l.15.19a1 1 0 0 1 .2.41.93.93 0 0 1-.34.93 1 1 0 0 1-.46.17h-.76a11.25 11.25 0 0 1-4-.57 19.65 19.65 0 0 1-3.63-1.53 33 33 0 0 1-6.37-4.52.46.46 0 1 1 .61-.68 74.87 74.87 0 0 1 7.63 7.89c.57.72 1.13 1.45 1.63 2.23.26.39.5.78.72 1.19.11.21.23.41.33.63a3.09 3.09 0 0 1 .14.32 1.31 1.31 0 0 1 .14.4 1.2 1.2 0 0 1-1 1.41 6.48 6.48 0 0 1-.76 0c-.24 0-.49-.07-.72-.12A8.38 8.38 0 0 1 273 177a35.41 35.41 0 0 1-7.65-7.86 93.18 93.18 0 0 1-6.07-9.08 106.61 106.61 0 0 0 6.37 8.85q1.71 2.12 3.59 4.07a23.39 23.39 0 0 0 4.1 3.49 7.88 7.88 0 0 0 2.37 1.07l.63.09h.6a.48.48 0 0 0 .4-.56 1.57 1.57 0 0 0-.1-.25l-.14-.29c-.09-.2-.21-.39-.31-.58-.23-.39-.46-.76-.72-1.13a25.7 25.7 0 0 0-1.63-2.14 72.86 72.86 0 0 0-7.58-7.74l.61-.67a32.08 32.08 0 0 0 6.2 4.33 19 19 0 0 0 3.47 1.44 11 11 0 0 0 3.63.52h.68c.06 0 0 0 0 0v.06c0 .06.05.07 0 0l-.15-.18a15 15 0 0 0-1.24-1.4 11 11 0 0 0-3-2.18l-7-3.3.43-.78a40.37 40.37 0 0 0 4.48 2.43 13.41 13.41 0 0 0 2.34.84 2.08 2.08 0 0 0 1 0c.13 0 .14-.09.19-.19a1 1 0 0 0 0-.46 4 4 0 0 0-.14-.55 4.29 4.29 0 0 0-.27-.5c-.22-.34-.47-.67-.73-1a18.77 18.77 0 0 0-1.76-1.81 29.23 29.23 0 0 0-4.11-3 .3.3 0 0 1-.1-.41.32.32 0 0 1 .39-.12c1.52.73 3.07 1.4 4.64 2a21.27 21.27 0 0 0 2.39.75 5.14 5.14 0 0 0 1.21.15c.41 0 .7-.14.64-.5a5.44 5.44 0 0 0-1.23-2.08 9.92 9.92 0 0 0-1.9-1.63 14.89 14.89 0 0 0-4.53-2.04Z"></path>
            <path fill="none" stroke="#ff5061" stroke-linecap="round" stroke-linejoin="round"
                  d="m114.67 114 71.52-15.42a6 6 0 0 0 4.74-5.86v-33.1a6 6 0 0 0-6-6h-71.52a6 6 0 0 0-6 6v48.49a6 6 0 0 0 7.26 5.89Z"></path>
            <path fill="none" stroke="#ff5061" stroke-linecap="round" stroke-linejoin="round"
                  d="m184.23 98.99-2.8 7.84-12.64-4.51 15.44-3.33z"></path>
            <path fill="#ff5061"
                  d="m169.31 102.5-.52-.18 15.44-3.33-.99 2.78-13.93.73zM149.13 93.01h2.29l3.06-29.68-7.7-1.65 2.35 31.33z"></path>
            <circle cx="150.41" cy="97.18" r="1.8" fill="#ff5061"></circle>
            <path fill="#f46534"
                  d="M336.89 250.87a79.63 79.63 0 0 1 1.21 7.89c.3 2.64.48 5.28.64 7.92s.23 5.29.21 7.94a78.83 78.83 0 0 1-.35 8 79 79 0 0 1-1.21-7.88c-.3-2.64-.48-5.28-.64-7.92s-.22-5.29-.21-7.94.08-5.34.35-8.01Z"></path>
            <path fill="#f46534"
                  d="M353.61 265.88a79.59 79.59 0 0 1-7.89 1.2c-2.64.3-5.28.49-7.92.65s-5.29.23-7.94.21a78.83 78.83 0 0 1-8-.35 79 79 0 0 1 7.88-1.21c2.64-.3 5.28-.48 7.92-.64s5.29-.23 7.94-.21 5.34.08 8.01.35ZM357.82 270.31a38 38 0 0 1 1.07 5.3c.24 1.77.41 3.55.51 5.33s.11 3.56.06 5.35a36.35 36.35 0 0 1-.49 5.38 36.29 36.29 0 0 1-1.06-5.3c-.24-1.77-.42-3.54-.51-5.32s-.12-3.57-.07-5.35a39.55 39.55 0 0 1 .49-5.39Z"></path>
            <path fill="#f46534"
                  d="M369.08 280.42a36.56 36.56 0 0 1-5.3 1.06c-1.77.24-3.55.42-5.33.51s-3.56.12-5.35.07a36.35 36.35 0 0 1-5.38-.49 36.6 36.6 0 0 1 5.3-1.07c1.77-.24 3.54-.41 5.32-.51s3.57-.11 5.36-.06a36.6 36.6 0 0 1 5.38.49ZM15 294.09c.55 2.62.91 5.25 1.2 7.89s.49 5.27.65 7.91.22 5.29.21 7.95a79 79 0 0 1-.36 8c-.55-2.62-.91-5.26-1.2-7.89s-.49-5.28-.65-7.92-.22-5.29-.2-7.94a76 76 0 0 1 .35-8Z"></path>
            <path fill="#f46534"
                  d="M31.72 309.09a78.74 78.74 0 0 1-7.89 1.21c-2.63.3-5.27.48-7.92.65s-5.29.22-7.94.2a79 79 0 0 1-8-.35 75.92 75.92 0 0 1 7.89-1.2c2.63-.31 5.27-.49 7.92-.65s5.29-.22 7.94-.21 5.33.08 8 .35ZM35.94 313.53a36.29 36.29 0 0 1 1.06 5.3c.24 1.77.42 3.54.51 5.32s.12 3.57.07 5.35a36.61 36.61 0 0 1-.49 5.39 36.6 36.6 0 0 1-1.07-5.3c-.24-1.77-.42-3.55-.51-5.33s-.11-3.56-.06-5.35a36.35 36.35 0 0 1 .49-5.38Z"></path>
            <path fill="#f46534"
                  d="M47.19 323.63a38 38 0 0 1-5.3 1.07c-1.77.24-3.54.41-5.32.51s-3.57.11-5.36.06a36.6 36.6 0 0 1-5.38-.49 36.56 36.56 0 0 1 5.3-1.06c1.77-.25 3.55-.42 5.33-.51s3.56-.12 5.35-.07a36.35 36.35 0 0 1 5.38.49ZM234 0c.55 2.62.91 5.25 1.2 7.89s.49 5.27.65 7.92.22 5.29.21 7.94a79 79 0 0 1-.36 8c-.55-2.62-.91-5.25-1.2-7.89s-.49-5.27-.65-7.92-.22-5.29-.2-7.94a76.13 76.13 0 0 1 .35-8Z"></path>
            <path fill="#f46534"
                  d="M250.69 15c-2.62.55-5.25.91-7.89 1.2s-5.28.49-7.92.65-5.29.22-7.94.21a79 79 0 0 1-8-.36c2.62-.55 5.25-.91 7.89-1.2s5.27-.49 7.92-.65 5.29-.22 7.94-.2a76.13 76.13 0 0 1 8 .35ZM254.91 19.44a36.56 36.56 0 0 1 1.06 5.3c.24 1.77.42 3.55.51 5.33s.12 3.56.07 5.35a36.47 36.47 0 0 1-.49 5.38 35.3 35.3 0 0 1-1.06-5.3c-.24-1.77-.42-3.55-.51-5.33s-.11-3.56-.06-5.35a36.35 36.35 0 0 1 .48-5.38Z"></path>
            <path fill="#f46534"
                  d="M266.16 29.54a38 38 0 0 1-5.3 1.07c-1.77.24-3.55.41-5.32.51s-3.57.11-5.36.07a36.5 36.5 0 0 1-5.38-.5 36.56 36.56 0 0 1 5.3-1.06 63.622 63.622 0 0 1 10.68-.57 37.73 37.73 0 0 1 5.38.48Z"></path>
            <path fill="none" stroke="#545454" stroke-linecap="round" stroke-linejoin="round"
                  d="M47.19 431.19h501"></path>
        </g>
    </g>
</svg>